<svg xmlns="http://www.w3.org/2000/svg" width="240" height="240" viewBox="0 0 240 240" role="img" aria-label="Profil fotoraf1">
  <defs>
    <linearGradient id="bg" x1="0" y1="0" x2="1" y2="1">
      <stop offset="0" stop-color="#ec4899"/>
      <stop offset="1" stop-color="#f59e0b"/>
    </linearGradient>
    <linearGradient id="shirt" x1="0" y1="0" x2="1" y2="1">
      <stop offset="0" stop-color="#111827"/>
      <stop offset="1" stop-color="#0f172a"/>
    </linearGradient>
  </defs>

  <rect width="240" height="240" rx="120" fill="url(#bg)"/>
  <circle cx="120" cy="100" r="54" fill="#fde68a"/>
  <path d="M66 98c8-38 30-58 54-58s46 20 54 58c-9 18-30 28-54 28s-45-10-54-28z" fill="#4c1d95" opacity="0.85"/>
  <circle cx="100" cy="102" r="6" fill="#0f172a"/>
  <circle cx="140" cy="102" r="6" fill="#0f172a"/>
  <path d="M102 124c10 10 26 10 36 0" fill="none" stroke="#0f172a" stroke-width="6" stroke-linecap="round"/>

  <path d="M40 240c10-52 44-80 80-80h0c36 0 70 28 80 80" fill="url(#shirt)"/>
  <path d="M92 166h56" stroke="#fce7f3" stroke-width="10" stroke-linecap="round" opacity="0.9"/>
  <path d="M110 156l18 0" stroke="#fce7f3" stroke-width="10" stroke-linecap="round" opacity="0.65"/>
</svg>
